# xmcd
#
# Track frame offsets:
#	220
#	11825
#	22360
#	40772
#	54745
#	87155
#	105497
#	116367
#	129297
#	138747
#	157400
#	181465
#	204630
#	222505
#	235757
#
# Disc length: 3480 seconds
#
# Revision: 5
# Processed by: cddbd v1.5.1PL2 Copyright (c) Steve Scherf et al.
# Submitted via: MusicManager 7.3.0.0 
#
DISCID=dc0d960f
DTITLE=John Lee Hooker - Ultimate Collection Disc 2
DYEAR=1991
DGENRE=Blues
TTITLE0=Boom Boom
TTITLE1=Big Legs, Tight Skirt
TTITLE2=You Know, I Know
TTITLE3=One Bourbon, One Scotch, One Beer
TTITLE4=Let's Go Out Tonight
TTITLE5=I Cover The Waterfront
TTITLE6=She's Mine (Keep Your Hands To Yourself)
TTITLE7=Back Biters And Syndicators
TTITLE8=Think Twice Before You Go
TTITLE9=Shake It Baby
TTITLE10=I'm Bad Like Jesse James
TTITLE11=Peavine
TTITLE12=Burning Hell
TTITLE13=Terraplane Blues
TTITLE14=I'm In The Mood
EXTD=YEAR: 1991
EXTT0=
EXTT1=
EXTT2=
EXTT3=
EXTT4=
EXTT5=
EXTT6=
EXTT7=
EXTT8=
EXTT9=
EXTT10=
EXTT11=
EXTT12=
EXTT13=
EXTT14=
PLAYORDER=
